<?xml version="1.0" encoding="utf-8"?>
<!-- Svg Vector Icons : http://www.onlinewebfonts.com/icon -->
<!DOCTYPE svg PUBLIC "-//W3C//DTD SVG 1.1//EN" "http://www.w3.org/Graphics/SVG/1.1/DTD/svg11.dtd">
<svg version="1.1" xmlns="http://www.w3.org/2000/svg" xmlns:xlink="http://www.w3.org/1999/xlink" x="0px" y="0px" viewBox="0 0 1000 1000" enable-background="new 0 0 1000 1000" xml:space="preserve">
<metadata> Svg Vector Icons : http://www.onlinewebfonts.com/icon </metadata>
<g><g transform="translate(0.000000,512.000000) scale(0.100000,-0.100000)"><path d="M2121.6,4964.4l-55.5-55.5l-1.9-447.9v-446l-90-57.4c-174.2-112.9-260.3-306.3-218.2-499.6c47.8-231.6,239.3-390.5,470.9-390.5c338.8,0,564.6,308.2,467,635.5c-26.8,91.9-164.6,248.8-245,283.3l-57.4,23v459.4v457.5l-49.8,45.9C2270.9,5037.1,2192.4,5035.2,2121.6,4964.4z M2332.1,3668.6c116.8-97.6,49.8-275.6-103.4-275.6c-164.6,0-216.3,225.9-67,300.5C2232.6,3729.9,2267.1,3724.1,2332.1,3668.6z"/><path d="M3756.2,4974l-53.6-45.9l-5.7-457.5l-5.7-455.5l-84.2-51.7c-214.4-130.2-292.8-405.8-179.9-629.7c109.1-218.2,352.2-315.8,599.1-243.1c105.3,30.6,264.1,189.5,294.8,294.8c70.8,239.3-19.1,478.5-216.3,583.8l-86.1,45.9v455.5v455.6l-47.9,45.9C3911.2,5033.3,3827,5033.3,3756.2,4974z M3939.9,3689.6c63.2-30.6,78.5-63.2,78.5-153.1c0-126.3-178-193.3-262.2-99.5c-59.3,63.2-68.9,118.7-34.5,185.7C3767.7,3712.6,3848.1,3737.5,3939.9,3689.6z"/><path d="M5387,4972.1l-47.9-45.9v-449.8v-449.8l-109.1-72.8c-149.3-99.5-216.3-225.8-216.3-403.8c0-153.1,45.9-258.4,156.9-357.9c103.4-93.8,181.8-124.4,325.4-124.4c145.5,0,246.9,44,344.5,145.5c95.7,101.4,135.9,202.9,135.9,346.4c-1.9,157-74.6,294.8-208.6,384.7l-93.8,65.1l-9.6,459.4l-9.6,459.4l-53.6,45.9C5530.5,5033.3,5446.3,5033.3,5387,4972.1z M5566.9,3689.6c59.3-28.7,103.3-124.4,84.2-178c-61.2-176.1-312-149.3-312,34.4c0,74.7,24.9,116.8,86.1,149.3C5476.9,3724.1,5503.7,3724.1,5566.9,3689.6z"/><path d="M7013.9,4972.1l-47.9-45.9v-457.5v-459.4l-57.4-23c-78.5-32.5-189.5-145.5-231.6-237.3c-51.7-112.9-47.9-283.3,9.6-405.8c160.8-346.5,652.7-375.2,847.9-47.9c34.4,57.4,67,139.7,74.6,185.7c26.8,181.8-70.8,384.7-231.6,482.3l-84.2,51.7l-1.9,446v447.9l-55.5,55.5C7163.2,5035.2,7079,5039.1,7013.9,4972.1z M7235.9,3668.6c70.8-65.1,61.3-189.5-19.1-250.8c-93.8-72.7-250.7,11.5-250.7,132.1C6967.9,3693.5,7130.6,3764.3,7235.9,3668.6z"/><path d="M1070.8,4338.5c-279.4-74.6-526.4-323.5-601-604.8c-30.6-111-32.5-430.7-26.8-3998.4l5.7-3875.9l70.8-143.5c90-181.8,248.8-338.8,430.7-424.9l130.2-61.3l2233.7-5.7l2231.8-3.8l51.7,44c67,55.5,70.8,170.4,11.5,231.6l-42.1,40.2l-2214.6,9.6l-2214.6,9.6l-86.1,51.7c-90,53.6-164.6,124.4-220.1,212.5l-32.5,51.7h2354.3c1514,0,2373.4,7.7,2406,19.1c65.1,24.9,112.9,132.1,88,199.1c-44,114.8,120.6,107.2-2494,107.2H764.5v162.7v162.7H3138c2608.8,0,2461.5-7.7,2503.6,114.8c24.9,67,15.3,107.2-40.2,166.5l-38.3,44H3162.8H764.5l3.8,3412.7l5.7,3410.8l51.7,90c30.6,47.9,88,118.7,132.1,157c116.7,99.5,218.2,126.3,470.8,126.3c206.7,0,220.1,1.9,264.1,47.9c80.4,78.5,59.3,201-42.1,254.6C1591.4,4378.7,1199,4373,1070.8,4338.5z"/><path d="M2785.8,4327c-76.6-67-82.3-149.3-21.1-222l51.7-61.3h227.8c218.2,0,231.6,1.9,275.6,47.9c47.9,45.9,61.3,124.4,36.4,191.4c-24.9,61.3-112.9,86.1-321.6,86.1C2852.8,4369.1,2829.8,4365.3,2785.8,4327z"/><path d="M4433.8,4348.1c-53.6-30.6-93.8-139.7-72.7-197.1c34.4-90,88-107.2,319.6-107.2c233.5,0,300.5,24.9,317.7,122.5c13.4,68.9-32.5,162.7-90,183.8C4841.4,4374.9,4477.8,4373,4433.8,4348.1z"/><path d="M6072.2,4350c-91.9-36.4-111-181.8-34.5-258.4c44-45.9,57.4-47.9,266.1-47.9c202.9,0,223.9,3.8,271.8,45.9c40.2,34.4,53.6,61.3,53.6,116.7c0,55.5-13.4,82.3-53.6,116.8c-47.9,42.1-67,45.9-256.5,44C6206.2,4367.2,6095.1,4359.6,6072.2,4350z"/><path d="M7702.9,4346.2c-97.6-55.5-116.7-178-38.3-254.6c44-45.9,57.4-47.9,264.1-47.9c279.5,0,371.3-28.7,503.4-160.8c172.3-174.2,160.8,11.5,160.8-2451.9c0-2162.9,0-2166.7,40.2-2218.4c53.6-68.9,170.4-70.8,237.4-1.9l47.9,45.9v2189.7c0,1940.8-3.8,2201.2-30.6,2293c-82.3,279.4-304.3,507.2-583.8,593.4C8168.1,4374.9,7768,4384.4,7702.9,4346.2z"/><path d="M2123.5,2034c-51.7-51.7-65.1-122.5-34.4-183.8c40.2-88,97.6-105.3,325.4-99.5c185.7,5.7,208.6,9.6,252.7,51.7c61.3,57.4,65.1,149.3,9.6,220.1c-38.3,49.8-42.1,49.8-277.5,49.8C2188.6,2072.3,2158,2068.4,2123.5,2034z"/><path d="M3442.3,2053.1c-55.5-32.5-82.3-126.3-55.5-191.4c49.8-120.6-26.8-114.8,1780.1-114.8c1806.9,0,1730.3-5.7,1780.1,114.8c28.7,67,0,160.8-59.3,191.4C6841.6,2078,3484.4,2078,3442.3,2053.1z"/><path d="M2140.7,1071.2c-88.1-67-95.7-168.4-19.1-245c55.5-53.6,61.3-55.5,260.3-55.5c262.2,0,333.1,34.4,335,168.4c0,42.1-15.3,78.5-47.9,109.1c-44,45.9-57.4,47.8-271.8,47.8C2249.8,1094.2,2159.9,1086.6,2140.7,1071.2z"/><path d="M3425.1,1048.3c-65.1-70.8-63.2-172.3,7.7-231.6l51.7-45.9h1519.7h1519.8l51.7,45.9c70.8,59.3,72.8,160.8,7.7,231.6l-44,47.8H5004.1H3469.1L3425.1,1048.3z"/><path d="M2121.6,64.5c-32.5-34.5-55.5-76.6-55.5-107.2c0-30.6,23-72.7,55.5-107.2c55.5-55.5,59.3-55.5,279.4-55.5c210.5,0,223.9,1.9,268,47.9c65.1,63.2,65.1,166.5,0,229.7c-44,45.9-57.4,47.9-268,47.9C2180.9,120,2177.1,120,2121.6,64.5z"/><path d="M3432.7,74c-40.2-34.5-53.6-61.2-53.6-116.8c0-55.5,13.4-82.3,53.6-116.7l51.7-45.9h1847.1h1849l55.5,55.5c72.8,72.7,72.8,141.6,0,214.4l-55.5,55.5h-1849H3484.4L3432.7,74z"/><path d="M2121.6-911.7c-59.3-59.4-68.9-112.9-32.5-179.9c42.1-80.4,72.7-88,308.2-90c214.4,0,227.8,1.9,271.8,47.9c32.5,30.6,47.9,67,47.9,109.1c-1.9,134-72.7,168.4-335,168.4C2182.9-856.2,2177.1-858.1,2121.6-911.7z"/><path d="M3463.3-881.1c-99.5-49.8-114.8-170.4-34.4-256.5l40.2-44h1699.7h1697.7l51.7,61.3c61.3,72.7,55.5,155-21.1,222l-47.9,42.1H5180.2C3880.6-856.2,3501.6-861.9,3463.3-881.1z"/><path d="M8363.3-1248.6c-88-42.1-283.3-227.8-1238.4-1182.9l-1135-1133.1v-560.8v-560.8l47.9-45.9l46-47.9h551.2h551.3l1140.8,1144.6c901.5,901.5,1150.4,1163.7,1186.7,1238.4c36.4,76.6,46,126.3,46,248.8c0,216.3-49.8,302.4-338.8,595.3c-287.1,292.9-365.6,338.8-589.5,348.3C8487.7-1198.8,8455.2-1204.6,8363.3-1248.6z M8677.2-1528c53.6-15.3,128.2-72.7,266-204.8c367.5-356,382.8-449.8,118.7-712l-124.4-124.4L8562.4-2196l-373.2,373.2l151.2,147.4c84.2,80.4,172.3,149.3,197.1,155c24.9,3.8,49.8,9.6,55.5,11.5C8598.7-1508.9,8637-1516.6,8677.2-1528z M8095.3-2186.5l124.4-124.4l-713.9-713.9l-712-712l-128.3,130.1l-130.1,128.2l708.2,708.2c388.6,390.5,712,708.2,717.8,708.2S8028.3-2117.5,8095.3-2186.5z M8579.6-2670.7c59.3-61.3,109.1-118.7,109.1-128.3c0-11.5-315.8-335-702.5-721.6l-704.4-704.4l-118.7,118.7c-67,65.1-120.6,128.2-120.6,139.7c0,24.9,1381.9,1406.8,1406.8,1406.8C8460.9-2559.7,8518.3-2609.5,8579.6-2670.7z M6688.5-4090.9l363.7-363.7h-369.4h-367.5v363.7c0,201,1.9,363.7,5.7,363.7C6322.9-3727.3,6489.4-3890,6688.5-4090.9z"/><path d="M2161.8-1855.3c-63.2-34.5-101.4-116.7-86.1-187.6c21.1-99.5,68.9-114.8,327.3-114.8c229.7,0,235.4,0,273.7,49.8c55.5,70.8,51.7,162.7-9.6,220.1c-44,42.1-67,45.9-252.7,51.7C2272.8-1832.4,2194.3-1838.1,2161.8-1855.3z"/><path d="M3461.4-1861.1c-72.7-40.2-105.3-128.2-74.7-201c13.4-32.5,40.2-67,59.3-76.6c45.9-26.8,2419.3-24.9,2467.2,0c93.8,49.8,80.4,225.8-21.1,277.5C5813.8-1819,3538-1819,3461.4-1861.1z"/></g></g>
</svg>